<svg xmlns="http://www.w3.org/2000/svg" class="logo-mark" viewBox="0 0 587 35"><path fill="#1B1B1B" fill-rule="evenodd" d="M89.628 40.485l-27.06 63.28H49.252l-26.917-63.28v63.28H0V3.234h30.21l25.772 63.569L81.897 3.234h30.067v100.531H89.628v-63.28zm144.257 51.122c-10.72 10.198-23.917 15.297-39.591 15.297-15.676 0-28.874-5.099-39.592-15.297-10.72-10.199-16.079-22.884-16.079-38.06 0-15.173 5.36-27.86 16.08-38.058C165.42 5.291 178.617.191 194.292.191c15.675 0 28.871 5.1 39.592 15.298 10.717 10.198 16.08 22.885 16.08 38.058 0 15.176-5.363 27.861-16.08 38.06zm-8.04-37.984c0-9.213-3.034-17.073-9.102-23.576-6.067-6.504-13.526-9.755-22.374-9.755-8.85 0-16.306 3.251-22.373 9.755-6.07 6.503-9.102 14.363-9.102 23.576 0 9.212 3.033 17.046 9.102 23.5 6.067 6.453 13.523 9.68 22.373 9.68 8.848 0 16.307-3.227 22.374-9.68 6.068-6.454 9.102-14.288 9.102-23.5zm127.651-37.23c9.855 8.774 14.785 20.976 14.785 36.604 0 15.629-4.806 27.997-14.416 37.105-9.61 9.11-24.272 13.663-43.985 13.663h-35.336V3.234h36.518c18.431 0 32.576 4.387 42.434 13.16zm-16.929 59.758c5.667-5.177 8.501-12.704 8.501-22.58 0-9.874-2.834-17.474-8.5-22.795-5.67-5.322-14.369-7.982-26.096-7.982H297.61v61.123h14.636c10.547 0 18.652-2.588 24.322-7.766zm85.327 3.882c3.817 4.652 8.952 6.975 15.41 6.975 6.456 0 11.569-2.323 15.335-6.975 3.765-4.65 5.65-11.002 5.65-19.057V3.33h22.893v58.367c0 14.576-4.108 25.77-12.327 33.583-8.218 7.815-18.736 11.721-31.552 11.721-12.818 0-23.358-3.93-31.625-11.793-8.268-7.861-12.4-19.033-12.4-33.511V3.329h22.892v57.647c0 8.055 1.91 14.408 5.724 19.057zM537.27 22.952c-2.185 1.821-3.278 4.23-3.278 7.23 0 3.004 1.334 5.388 4.006 7.16 2.669 1.77 8.833 3.862 18.494 6.273 9.659 2.412 17.159 6.028 22.5 10.847C584.327 59.285 587 66.322 587 75.57c0 9.25-3.423 16.751-10.268 22.508-6.843 5.756-15.85 8.635-27.012 8.635-16.116 0-30.631-6.052-43.542-18.156l13.544-16.825c10.97 9.742 21.115 14.611 30.435 14.611 4.174 0 7.45-.908 9.829-2.73 2.378-1.82 3.568-4.28 3.568-7.38 0-3.099-1.263-5.558-3.786-7.38-2.526-1.818-7.524-3.663-14.999-5.534-11.846-2.853-20.511-6.569-25.993-11.144-5.488-4.576-8.23-11.757-8.23-21.55 0-9.789 3.471-17.341 10.412-22.655C527.9 2.657 536.564 0 546.954 0c6.794 0 13.59 1.18 20.387 3.541 6.795 2.363 12.717 5.71 17.765 10.038l-11.503 16.826c-8.836-6.79-17.963-10.185-27.378-10.185-3.786 0-6.772.912-8.956 2.732z"></path></svg>
