<svg xmlns="http://www.w3.org/2000/svg" class="svg-logo" viewBox="-105 0 430 140"><g transform="translate(-1 -1)" fill="none" fill-rule="evenodd"><path class="rightfill" fill="#FFF" d="M153.125 106.75c0-36.243 29.381-65.625 65.625-65.625 0-14.279-2.828-27.893-7.937-40.33C155.84 4.855 112.5 50.74 112.5 106.75c0 58.681 47.57 106.25 106.25 106.25 2.099 0 4.182-.067 6.25-.187v-40.741a66.558 66.558 0 0 1-6.25.303c-36.244 0-65.625-29.382-65.625-65.625"></path><path class="rightfill path_top" fill="#903" d="M148.59 122.338a72.054 72.054 0 0 1-1.715-15.588c0-37.526 28.764-68.318 65.443-71.574a99.532 99.532 0 0 0-5.634-27.699c-49.538 5.959-87.934 48.13-87.934 99.273 0 7.394.81 14.596 2.332 21.532a105.703 105.703 0 0 0 27.508-5.944"></path><path class="rightfill path_bottom" fill="#F90" d="M148.589 122.334a105.737 105.737 0 0 1-27.508 5.946c9.849 44.878 49.833 78.47 97.669 78.47v-28.125c-34.342 0-63.039-24.092-70.161-56.291"></path><path class="topfill" fill="#FFF" d="M177.797 47.697C174.5 80.854 146.525 106.75 112.5 106.75c-36.244 0-65.625-29.381-65.625-65.625a65.334 65.334 0 0 1 6.947-29.38A105.523 105.523 0 0 0 14.174.809C9.071 13.242 6.25 26.853 6.25 41.125c0 58.68 47.57 106.25 106.25 106.25s106.25-47.57 106.25-106.25c0-2.097-.068-4.178-.188-6.245-15.152.039-29.195 4.771-40.765 12.817"></path><path class="topfill path_top" fill="#090" d="M92.541 110.17c-29.98-8.652-51.916-36.278-51.916-69.045 0-9.291 1.782-18.16 4.992-26.311a99.298 99.298 0 0 0-27.309-7.333A99.819 99.819 0 0 0 12.5 41.125c0 45.58 30.497 84.033 72.197 96.079a105.393 105.393 0 0 0 7.844-27.034"></path><path class="topfill path_bottom" fill="#F30" d="M183.643 51.315C178.692 86.182 148.734 113 112.5 113a71.845 71.845 0 0 1-19.938-2.824 105.495 105.495 0 0 1-7.861 27.03 100.044 100.044 0 0 0 27.799 3.919c55.13 0 99.836-44.612 99.996-99.704a65.168 65.168 0 0 0-28.853 9.894"></path><path class="leftfill" fill="#FFF" d="M48.159 9.091a71.517 71.517 0 0 0-7.534 32.034c0 3.46.253 6.859.726 10.188 18.34 11.637 30.524 32.108 30.524 55.437 0 36.243-29.381 65.625-65.625 65.625-2.109 0-4.192-.109-6.25-.303v40.741c2.069.12 4.151.187 6.25.187 58.68 0 106.25-47.569 106.25-106.25 0-43.797-26.501-81.399-64.341-97.659"></path><path class="leftfill path_top" fill="#069" d="M51.287 17.447a65.418 65.418 0 0 0-4.412 23.678c0 2.219.114 4.41.33 6.572 18.68 12.98 30.92 34.582 30.92 59.053 0 39.696-32.18 71.875-71.875 71.875v28.125c55.229 0 100-44.771 100-100 0-39.026-22.359-72.827-54.963-89.303"></path></g></svg>
